<?xml version="1.0" encoding="UTF-8"?>
<svg id="Layer_2" data-name="Layer 2" xmlns="http://www.w3.org/2000/svg" viewBox="0 0 1500 1500">
  <defs>
    <style>
      .cls-1 {
        fill: #2da9a2;
      }
    </style>
  </defs>
  <path class="cls-1" d="M689.43,643.5c-8.29-84.58-90.83-112.28-137.93-112.28H221.99c-2.51,0-4.55,2.01-4.6,4.51-.04,2.12,1.36,3.99,3.4,4.54l150.48,40.62c2.96.8,4.69,3.88,3.84,6.83l-8.78,30.21h-182.68c-1.2,0-2.29.49-3.07,1.27-.78.79-1.27,1.88-1.27,3.08,0,1.96,1.31,3.67,3.2,4.19l169.39,46.2-9.83,31.79h-132.47c-1.18,0-2.24.48-3.01,1.24-.77.77-1.24,1.83-1.24,3,0,1.82,1.15,3.43,2.86,4.02l119.69,41.2-38.01,127.08c-1.22,4.09,1.84,8.21,6.12,8.21h159.97c182.01-6.73,242.33-155.26,233.45-245.71ZM598.37,690.66c-2.21,27.15-12.74,53.09-30.56,73.68-34.47,39.82-84.04,46.73-105.02,46.73h-52.85l57.78-198.05h49.96c8.78,0,17.56.85,26.11,2.8,40.15,9.18,57.74,36.14,54.58,74.84Z"/>
  <path class="cls-1" d="M670.99,887.49h46.44c5.06,0,9.52-3.34,10.94-8.21l45.1-154.93c5.86-21.06,25.05-35.63,46.91-35.63h9.73c3.95,0,7.36-2.76,8.2-6.62l8.2-37.98c1.14-5.29-2.96-10.26-8.38-10.13-7.34.18-17.39.37-26.52.37-16.98,0-77.97,10.28-98.71,78.06l-48.39,166.41c-1.26,4.32,1.99,8.64,6.49,8.64Z"/>
  <path class="cls-1" d="M979.51,633.64c-84.27-2.42-128.77,54.05-148.02,103.5-8.23,21.13-10.64,40.21-11.56,54.12-3.06,46.47,16.66,100.28,97.85,100.66,61.65.29,99.05-26.13,113.48-38.87,4.12-3.64,5.07-9.68,2.26-14.4l-12.15-20.39c-2.41-4.05-7.57-5.52-11.74-3.32-15.24,8.05-52.02,24.84-88.81,21.61-48.07-4.21-34.18-52.5-34.18-52.5h153.68c4.25,0,8-2.74,9.28-6.79,9.12-28.87,37.19-140.06-70.09-143.62ZM1002.55,735.09h-102.77c-1.35,0-2.27-1.38-1.72-2.62,8.95-20.22,28.47-48.48,69.73-47.93,43.09.57,34.76,50.55,34.76,50.55Z"/>
  <path class="cls-1" d="M1229.6,633.64c-84.27-2.42-128.77,54.05-148.02,103.5-8.23,21.13-10.64,40.21-11.56,54.12-3.06,46.47,16.66,100.28,97.85,100.66,61.65.29,99.05-26.13,113.48-38.87,4.12-3.64,5.07-9.68,2.26-14.4l-12.15-20.39c-2.41-4.05-7.57-5.52-11.74-3.32-15.24,8.05-52.02,24.84-88.81,21.61-48.07-4.21-34.18-52.5-34.18-52.5h153.68c4.25,0,8-2.74,9.28-6.79,9.12-28.87,37.19-140.06-70.09-143.62ZM1252.64,735.09h-102.77c-1.35,0-2.27-1.38-1.72-2.62,8.95-20.22,28.47-48.48,69.73-47.93,43.09.57,34.76,50.55,34.76,50.55Z"/>
</svg>